<?xml version="1.0" encoding="UTF-8" standalone="no"?>
<svg
   xmlns:dc="http://purl.org/dc/elements/1.1/"
   xmlns:cc="http://creativecommons.org/ns#"
   xmlns:rdf="http://www.w3.org/1999/02/22-rdf-syntax-ns#"
   xmlns:svg="http://www.w3.org/2000/svg"
   xmlns="http://www.w3.org/2000/svg"
   xmlns:sodipodi="http://sodipodi.sourceforge.net/DTD/sodipodi-0.dtd"
   xmlns:inkscape="http://www.inkscape.org/namespaces/inkscape"
   sodipodi:docname="ig_logo.svg"
   inkscape:version="1.0 (4035a4f, 2020-05-01)"
   id="svg8"
   version="1.1"
   viewBox="0 0 210 297"
   height="297mm"
   width="210mm">
  <defs
     id="defs2" />
  <sodipodi:namedview
     inkscape:window-maximized="0"
     inkscape:window-y="23"
     inkscape:window-x="-1"
     inkscape:window-height="1035"
     inkscape:window-width="1920"
     showborder="false"
     showgrid="false"
     inkscape:document-rotation="0"
     inkscape:current-layer="layer1"
     inkscape:document-units="mm"
     inkscape:cy="396.36813"
     inkscape:cx="144"
     inkscape:zoom="1"
     inkscape:pageshadow="2"
     inkscape:pageopacity="0.0"
     borderopacity="1.0"
     bordercolor="#666666"
     pagecolor="#ffffff"
     id="base" />
  <metadata
     id="metadata5">
    <rdf:RDF>
      <cc:Work
         rdf:about="">
        <dc:format>image/svg+xml</dc:format>
        <dc:type
           rdf:resource="http://purl.org/dc/dcmitype/StillImage" />
        <dc:title></dc:title>
      </cc:Work>
    </rdf:RDF>
  </metadata>
  <g
     style="display:inline"
     id="layer1"
     inkscape:groupmode="layer"
     inkscape:label="Layer 1">
    <path
       d="m 43.350325,76.37415 c -9.355558,0 -17.074062,3.0403 -23.155176,9.12141 -6.022641,6.02264 -9.034073,13.71176 -9.034073,23.06733 0,9.47249 3.011432,17.22037 9.034073,23.24302 5.964169,5.96416 13.682673,8.94622 23.155176,8.94622 9.940278,0 17.921638,-3.18719 23.944278,-9.56065 5.55486,-5.84723 8.3323,-13.039 8.3323,-21.57595 h -24.64604 v 3.59617 h 20.699 c -0.58472,5.61334 -2.92357,10.64201 -7.01663,15.0859 -5.00913,5.49916 -11.51471,8.43641 -19.51508,8.81496 V 79.92484 c 9.25389,0.43576 16.51939,4.28049 21.79556,11.53521 l 2.8944,-2.19315 C 63.406163,80.67149 54.576993,76.37415 43.350325,76.37415 Z m -1.71049,3.54966 v 57.19134 c -7.488487,-0.35024 -13.789564,-3.0256 -18.901172,-8.02845 -5.379445,-5.37945 -8.069274,-12.22076 -8.069274,-20.52381 0,-8.24459 2.719206,-15.0859 8.157125,-20.52382 5.057195,-5.05719 11.328704,-7.7612 18.813321,-8.11526 z"
       style="font-style:normal;font-variant:normal;font-weight:500;font-stretch:normal;font-size:56.6879px;line-height:1.25;font-family:GeosansLight;-inkscape-font-specification:'GeosansLight, Medium';font-variant-ligatures:normal;font-variant-caps:normal;font-variant-numeric:normal;font-variant-east-asian:normal;opacity:1;fill:#000000;fill-opacity:1;stroke:none;stroke-width:2.19271"
       id="path837" />
  </g>
</svg>
